# xmcd
#
# Track frame offsets: 
#        150
#        18628
#        31476
#        43879
#        56238
#        68504
#        82125
#        93209
#        105506
#        127067
#        142802
#        157383
#        172614
#        183720
#        194378
#
# Disc length: 2783 seconds
#
# Revision: 1
# Processed by: cddbd v1.5.2PL0 Copyright (c) Steve Scherf et al.
# Submitted via: ExactAudioCopyFreeDBPlugin 1.0
#
DISCID=d30add0f
DTITLE=Edwin Kimmler - That Keeps Me Walking
DYEAR=2017
DGENRE=Blues and Boogie
TTITLE0=Walking Blues
TTITLE1=Back In Trinidad
TTITLE2=Ta Hu Wa Hu Wai
TTITLE3=At The End Of The Day
TTITLE4=Beautiful Moments
TTITLE5=It's You
TTITLE6=Demons
TTITLE7=Running
TTITLE8=Sunny
TTITLE9=Slide Heaven
TTITLE10=Power Of Love
TTITLE11=Is It You ?
TTITLE12=That Keeps Me Walking
TTITLE13=Suddenly
TTITLE14=I'll Fly Away
EXTD=YEAR: 2017
EXTT0=
EXTT1=
EXTT2=
EXTT3=
EXTT4=
EXTT5=
EXTT6=
EXTT7=
EXTT8=
EXTT9=
EXTT10=
EXTT11=
EXTT12=
EXTT13=
EXTT14=
PLAYORDER=
